<svg width="200" height="133" viewBox="0 0 200 133" fill="none" xmlns="http://www.w3.org/2000/svg">
<path d="M124.657 28.9999L123.68 28.7904V28.7904L124.657 28.9999ZM3.74358 132.406C3.96801 132.911 4.55901 133.138 5.06365 132.914L13.2871 129.256C13.7917 129.032 14.0189 128.441 13.7945 127.936C13.57 127.432 12.979 127.205 12.4744 127.429L5.16466 130.68L1.91385 123.37C1.68942 122.865 1.09841 122.638 0.593775 122.863C0.0891475 123.087 -0.138012 123.678 0.0864136 124.183L3.74358 132.406ZM199.657 1L199.657 2.7254e-08C191.566 9.73068e-06 182.119 4.9907 172.814 11.4439C163.468 17.9255 154.024 26.0636 145.965 32.5982C141.92 35.8776 138.231 38.7485 135.051 40.838C131.824 42.9576 129.286 44.1582 127.508 44.3C126.662 44.3673 126.081 44.1881 125.66 43.8404C125.222 43.4791 124.818 42.8209 124.572 41.6585C124.073 39.2968 124.326 35.3207 125.635 29.2094L124.657 28.9999L123.68 28.7904C122.364 34.9291 122.023 39.2655 122.615 42.0719C122.916 43.4934 123.479 44.633 124.387 45.3826C125.311 46.1457 126.453 46.3904 127.666 46.2937C130.005 46.1073 132.924 44.6283 136.149 42.5096C139.419 40.3608 143.175 37.4349 147.224 34.1517C155.353 27.5614 164.69 19.512 173.954 13.0874C183.258 6.63432 192.248 2.00001 199.657 2L199.657 1ZM124.657 28.9999L125.635 29.2094C126.304 26.0886 126.497 23.5138 126.214 21.4666C125.93 19.4083 125.15 17.8049 123.81 16.7781C122.479 15.7581 120.755 15.4314 118.837 15.5826C116.921 15.7337 114.718 16.3667 112.303 17.3781C102.681 21.4085 88.8124 31.8393 74.1979 45.0599C59.552 58.3087 44.0572 74.4518 31.1717 90.0139C18.3078 105.55 7.96873 120.597 3.72387 131.641L4.6573 132L5.59072 132.359C9.71102 121.638 19.8671 106.803 32.7122 91.2894C45.5359 75.8019 60.9642 59.7281 75.5396 46.543C90.1462 33.3297 103.797 23.1097 113.076 19.2228C115.387 18.2549 117.371 17.7044 118.994 17.5764C120.617 17.4486 121.787 17.7474 122.594 18.3658C123.392 18.9774 123.996 20.0255 124.233 21.7403C124.472 23.4662 124.323 25.7862 123.68 28.7904L124.657 28.9999Z" fill="black"/>
</svg>
