<svg width="171" height="123" viewBox="0 0 171 123" fill="none" xmlns="http://www.w3.org/2000/svg">
<path d="M168.898 1.69595C167.724 2.01225 166.184 2.36713 165.019 2.62082C164.654 2.70045 164.824 2.6029 164.572 2.65557C164.078 2.75866 163.631 2.89859 163.146 2.99657C162.985 3.02879 163.162 2.89716 162.993 2.93282C162.083 3.1259 161.171 3.3812 160.229 3.60587C155.596 4.71003 151.013 5.90449 146.422 7.15454C144.866 7.57824 142.969 8.04097 141.409 8.53019C141.227 8.58739 141.357 8.62632 141.324 8.64231C140.804 8.89096 140.944 8.69514 140.582 8.78038C139.162 9.1148 137.557 9.58581 136.19 10.0299C135.61 10.2189 136.238 10.1813 135.627 10.2811C135.584 10.2882 135.709 10.1684 135.547 10.209C135.179 10.3013 134.499 10.5245 134.218 10.6045C133.678 10.7583 133.589 10.7865 133.083 10.9426C132.386 11.1574 131.582 11.3685 130.817 11.6295C130.657 11.6845 130.895 11.6932 130.642 11.7878C130.388 11.8824 129.708 12.0924 129.474 12.1476C129.24 12.2027 129.318 12.1115 129.273 12.1107C128.904 12.101 128.177 12.5137 128.078 12.5502C126.267 13.2133 124.746 13.6175 123 14.2107C121.696 14.6542 120.329 15.1621 119.114 15.5868C117.681 16.0872 116.403 16.5017 114.994 17.0286C114.845 17.0842 115.052 17.1083 114.87 17.1765C112.934 17.9027 111.07 18.6002 109.107 19.3027C108.912 19.3721 109.13 19.1977 108.934 19.2626C107.732 19.6603 105.835 20.2505 105.291 20.8651C104.516 21.1678 103.528 21.5639 102.8 21.793C102.327 21.9422 102.733 21.6722 102.191 21.9442C102.069 22.0055 102.263 22.0088 102.078 22.0952C101.297 22.4591 100.429 22.8068 99.6748 23.1829C99.5215 23.2596 99.5928 23.3056 99.5536 23.3368C99.2222 23.5952 98.5358 23.7135 98.3885 23.7659C97.3019 24.1503 96.5573 24.5291 95.5953 24.9712C95.3722 25.0739 95.6755 25.0382 95.4624 25.1401C94.3516 25.6702 93.2341 26.1908 92.1161 26.6858C91.8697 26.7947 92.0571 26.6137 91.9375 26.662C91.4111 26.8763 91.3657 27.0689 90.8652 27.2784C90.7598 27.3228 90.7868 27.2322 90.7648 27.2346C90.4194 27.2716 90.2415 27.5493 90.1685 27.5899C89.2453 28.107 88.5654 28.2532 87.6755 28.7389C87.5692 28.7972 87.8521 28.7501 87.5513 28.9092C85.5192 29.9846 83.3798 31.1113 81.383 32.1585C81.0689 32.3235 81.2569 32.1416 81.2334 32.1455C80.8541 32.2141 80.734 32.4786 80.637 32.5413C79.8694 33.0322 79.0657 33.3354 78.639 33.8219C75.3107 35.6997 72.1487 37.8404 68.9022 39.8515C68.8612 39.8771 68.8851 39.759 68.8034 39.8105C67.8204 40.432 68.0785 40.413 67.5426 40.9833C67.4077 41.1268 66.818 41.3093 66.7676 41.3283C66.5834 41.3958 66.6709 41.1804 66.6134 41.209C66.1397 41.4504 66.4474 41.7362 65.8716 42.1524C65.8532 42.1649 65.8844 42.0487 65.8316 42.0776C65.6674 42.1672 65.5364 42.2997 65.3745 42.3856C65.0038 42.5817 64.765 42.5077 64.3247 42.9789C64.2695 43.039 64.5064 43.1532 63.9924 43.5231C63.7867 43.6699 62.8986 44.3464 62.6419 44.5253C62.3849 44.7033 62.5092 44.5131 62.4895 44.524C61.7612 44.9584 61.9901 44.7306 61.5645 44.8736C61.1394 45.0182 61.4479 45.2225 61.336 45.3595C61.2237 45.4964 60.6863 45.815 60.5494 45.8874C60.4124 45.9596 60.5314 45.8041 60.4153 45.8755C59.6471 46.3518 60.2157 46.2569 60.0197 46.4847C59.5595 47.0224 58.9757 47.1619 58.4668 47.5471C58.3293 47.6514 58.4755 47.6077 58.3606 47.7095C57.9053 48.1127 57.5725 48.2841 57.0913 48.7868C57.0123 48.8691 56.687 49.3492 56.3379 49.4974C56.2882 49.5182 56.3567 49.3742 56.1505 49.5318C55.8422 49.7671 55.3053 50.2134 55.0065 50.5043C54.786 50.719 55.1211 50.5669 54.8087 50.7972C54.6699 50.8997 54.8678 50.6422 54.6104 50.8388C54.354 51.034 53.742 51.583 53.5112 51.7943C53.2806 52.005 53.4619 51.9507 53.4468 51.9716C53.3542 52.0968 52.9366 52.5286 52.8981 52.564C50.9419 54.3624 49.0608 55.9845 47.275 57.856C47.1344 58.0034 47.2905 57.9667 47.2696 57.9899C46.8063 58.5119 47.0297 57.9605 46.634 58.2558C46.8072 58.3266 46.5832 58.5099 46.2543 58.8767C46.096 59.0536 46.2341 59.0074 46.224 59.0277C46.053 59.3512 45.7887 59.4368 45.7255 59.4639C45.4926 59.5637 45.402 59.8284 45.2446 59.8979C45.0876 59.9679 45.2688 59.6354 44.9437 59.98C44.8974 60.1191 45.2566 59.9753 45.0288 60.2543C44.1682 61.3019 42.3861 63.0686 41.6546 63.8819C40.9254 64.6869 40.6991 64.9673 40.274 65.4247C39.5035 66.2591 39.8659 66.0221 39.4508 66.5953C39.0356 67.1718 39.0317 66.7183 38.9173 66.7552C38.8041 66.7909 38.7837 66.9169 38.6768 66.99C38.57 67.063 38.71 66.8286 38.5119 67.0447C38.3134 67.2605 37.8882 67.9507 37.8737 68.0736C37.8427 68.3333 38.1861 68.1471 37.6535 68.7149C37.6229 68.7476 37.6545 68.586 37.54 68.7136C36.6254 69.7381 35.7623 70.8163 34.8885 71.8548C34.7685 71.9972 34.8022 71.8127 34.7316 71.895C33.997 72.7547 34.3594 72.525 34.1115 73.1154C34.0248 72.8741 33.7106 73.0649 33.1897 73.7533C32.8769 74.1676 33.0057 74.1534 32.8582 74.4615C32.8151 74.5525 32.5477 74.8035 32.5443 74.8826C32.5322 75.1425 32.8644 74.9645 32.2928 75.631C32.2675 75.6601 32.2762 75.5145 32.1936 75.6187C31.6597 76.2937 31.7213 76.4661 31.1904 77.2339C30.7743 77.8356 29.9427 78.8498 29.4495 79.5343C29.257 79.3856 28.8601 80.0553 28.8182 80.4124C28.5084 80.8508 28.1889 81.3368 27.8778 81.7566C27.7708 81.9011 27.7786 81.764 27.7596 81.7785C27.4665 82.0004 27.4704 82.287 27.4107 82.3876C26.7602 83.472 26.0766 84.2899 25.5285 85.3625C25.5092 85.4006 25.6137 85.5492 25.3374 85.752C25.3191 85.7649 25.468 85.3905 25.159 85.8617C24.8499 86.3326 24.2023 87.186 23.8502 87.8988C23.7648 88.071 23.6253 88.5542 23.3297 88.8299C23.2901 88.8664 23.2788 88.7927 23.2165 88.8424C23.0162 89.0041 23.0919 89.2061 22.8192 89.3741C22.5488 89.5386 22.1355 90.0066 21.8173 90.7284C21.8068 90.7514 21.8263 90.9806 21.6969 91.1922C21.4902 91.5298 21.1776 91.9996 20.9667 92.3581C20.8658 92.5298 21.0028 92.4627 20.9865 92.4932C20.3463 93.6707 19.7997 94.4624 19.0494 95.7114C18.9094 95.9444 18.6371 96.6561 18.3118 97.0511C17.9538 97.4879 17.8737 96.7855 17.3348 97.9546C17.1171 98.4275 17.2568 99.2532 16.5704 99.9475C15.7538 101.587 14.8454 103.001 14.0972 104.646C14.0633 104.72 14.0737 105.016 13.9837 105.185C13.8498 105.437 13.7175 105.545 13.62 105.724C13.2102 106.475 12.9047 107.203 12.5211 107.943C12.3756 108.224 12.3625 108.093 12.1891 108.429C12.0142 108.769 11.9924 109.02 11.7289 109.448C11.5305 109.77 11.1929 110.024 10.9506 110.466C11.1098 110.566 10.9535 110.873 10.7269 111.449C10.6834 111.559 10.7977 111.474 10.7801 111.528C10.7101 111.747 10.5689 111.914 10.5067 112.125C10.4915 112.176 10.5478 112.207 10.5386 112.25C10.4625 112.621 10.069 113.106 10.0011 113.189C9.74167 113.509 9.73527 113.714 9.56836 113.976C9.40165 114.237 9.55834 113.802 9.38252 114.117C9.01643 114.773 8.61783 115.639 8.30267 116.303C8.17624 116.571 8.33915 116.424 8.32286 116.463C8.08255 117.026 7.73792 117.552 7.74817 117.933C7.17029 118.137 7.63035 118.288 7.18067 119.054C7.14509 119.115 6.91939 119.109 7.00366 118.853C7.08795 118.597 7.3167 118.256 7.42918 117.9C7.45584 117.816 7.49069 117.279 7.5089 117.212C7.65142 116.689 7.96449 116.752 7.99185 116.734C8.29386 116.522 8.36276 115.883 8.41792 115.732C8.6647 115.053 8.98775 114.475 9.21348 113.894C9.36283 113.511 9.19707 113.388 9.34187 113.101C9.8235 112.149 10.24 111.941 10.457 110.939C10.5039 110.725 10.2111 110.816 10.7048 110.209C10.7359 110.171 11.1293 109.735 11.1837 109.399C11.1905 109.357 11.1319 109.329 11.1511 109.279C11.2805 108.94 11.4339 108.748 11.5875 108.386C11.7467 108.013 11.9321 107.564 12.1594 107.164C12.2962 106.923 12.5643 106.662 12.6505 106.558C12.8955 106.265 12.9532 105.847 13.1499 105.69C13.3479 105.531 13.2806 106.005 13.6178 105.497C13.4786 105.4 13.349 105.275 13.2153 105.165C13.8325 103.983 14.4756 102.875 15.0983 101.693C15.1763 101.545 15.0158 101.653 15.0975 101.493C15.4423 100.819 15.812 100.269 16.1622 99.5737C16.433 99.035 16.6663 98.4121 16.9487 97.8536C17.3021 97.6125 17.6957 96.7734 18.0399 96.2008C18.1605 95.9997 18.1966 96.0403 18.2945 95.9017C18.6668 95.3717 18.3698 95.5505 18.434 95.3836C18.7103 94.6695 19.0762 94.8042 19.5116 94.0321C19.5346 93.9911 19.6452 93.3924 19.6741 93.318C19.8546 92.8435 19.7775 93.2823 19.9486 93.0196C20.2613 92.5407 20.5043 92.2245 20.7929 91.6213C20.8768 91.4453 21.0055 90.9799 21.2838 90.709C21.3203 90.6733 21.3643 90.7316 21.3882 90.6996C21.815 90.119 21.6446 89.9904 21.8014 89.5932C21.9585 89.1955 22.4227 88.7202 22.5278 88.6307C22.8017 88.3951 22.4294 88.8799 22.4289 88.9016C22.4234 89.1554 22.6514 88.7413 22.8496 88.4412C23.0546 88.5065 23.3082 88.0735 23.0544 88.13C23.0263 88.1368 22.8956 88.3848 22.8496 88.4412C22.841 88.0651 23.1103 87.5808 23.5951 87.1684C23.8222 86.9759 23.7676 87.2575 24.1945 86.5098C24.3886 86.1712 24.1864 86.2214 24.3379 85.9101C24.6845 85.1987 25.3456 84.4215 25.7828 83.7157C25.9398 83.4621 25.7147 83.6619 25.8198 83.4871C26.0987 83.0232 26.4104 82.6593 26.6849 82.1934C26.7097 82.1511 26.5747 82.2048 26.6671 82.0646C27.3672 81.0003 28.028 80.1238 28.7818 79.0424C29.1521 78.51 29.7802 77.541 30.1755 77.0058C30.8593 76.0753 31.7886 75.0093 32.3475 74.2124C32.7169 73.6868 32.5683 73.7486 32.6895 73.4938C32.924 73 33.6517 72.3682 33.7529 72.2867C33.7559 72.2841 33.4349 72.7359 33.648 72.5268C33.8224 72.444 33.7494 72.2919 33.7529 72.2867C33.8186 72.2317 34.5082 71.3699 34.6307 71.189C34.697 71.09 34.5946 71.0943 34.6303 71.0437C35.4803 69.8425 36.3868 68.6806 37.374 67.5418C37.392 67.5224 37.4341 67.6087 37.4757 67.5625C38.0586 66.9183 38.3328 66.4256 38.7454 65.8405C39.1582 65.256 39.5429 64.8423 39.9312 64.6231C40.2702 64.2025 40.8341 63.6607 41.1599 63.3544C41.4859 63.0475 41.4007 62.8884 41.4243 62.8568C42.1601 61.8731 42.7076 61.4163 43.5774 60.5018C43.9872 60.0707 44.7985 59.1763 45.2377 58.6942C45.5851 58.3115 45.8303 58.1161 46.1442 57.7584C46.1867 57.71 46.0871 57.7035 46.0988 57.6875C46.4054 57.245 46.3592 57.5569 46.4593 57.502C46.8234 57.3036 47.0401 57.1744 47.4786 56.6557C47.5797 56.5362 47.7143 56.0263 47.9063 55.815C48.1568 55.5403 48.1242 55.7062 48.3863 55.4168C48.4088 55.3921 48.3625 55.3548 48.5366 55.1885C49.3442 54.416 50.2477 53.6016 51.091 52.8091C51.2064 52.7009 50.9942 52.7706 51.16 52.6132C51.9375 51.8759 52.8121 51.0869 53.6238 50.4254C53.8237 50.2629 53.7464 50.419 53.8011 50.3964C54.1354 50.2571 54.3879 49.8084 54.4464 49.7531C55.8352 48.4319 57.0539 47.6056 58.5183 46.3174C58.5974 46.2469 59.1187 45.5899 59.5025 45.4852C59.5286 45.4777 59.9105 45.3784 60.0926 45.0944C60.104 45.0767 59.876 45.1513 60.1895 44.9145C60.5025 44.678 60.9682 44.2434 61.4497 43.9867C61.6022 43.9052 62.0181 43.7868 62.345 43.3776C62.3653 43.3504 62.8177 42.6454 63.1626 42.6369C63.2189 42.636 63.3064 42.8328 63.729 42.3835C63.8097 42.2974 63.6123 42.3853 63.8405 42.1794C64.1904 41.8636 64.7249 41.5414 65.1378 41.1265C65.2095 41.0539 65.4739 40.6862 65.8177 40.5741C65.8714 40.5566 65.8294 40.6732 65.9813 40.5743C66.7014 40.1064 67.4111 39.5508 68.159 39.0948C68.4239 38.9333 68.3578 39.1168 68.6412 38.9595C68.9247 38.8021 69.4795 38.461 69.7316 38.2292C69.9838 37.9972 69.575 38.0526 69.9893 37.7578C71.792 36.478 73.6718 35.4037 75.5688 34.2616C75.8495 34.093 75.5854 34.1778 75.9951 33.9271C77.4877 33.0076 80.1163 31.4123 81.5311 30.7871C82.6523 30.2895 81.3497 31.1102 82.1874 30.6962C82.5915 30.4967 82.9187 30.0769 83.0115 30.0187C83.9159 29.4479 84.6169 29.1784 85.4592 28.701C85.6333 28.6024 85.4199 28.6183 85.5687 28.5352C86.0754 28.2516 86.6432 27.9991 87.1221 27.7446C87.3391 27.6291 87.269 27.5918 87.4728 27.4929C87.9604 27.2558 88.4014 27.0628 88.9032 26.8791C88.9489 26.8624 88.694 27.0814 89.0552 26.9033C89.64 26.6149 90.3938 26.3084 91.0457 25.9208C91.239 25.8056 91.1813 25.6673 91.6612 25.5493C91.7621 25.5245 91.7229 25.742 92.1635 25.3578C92.2438 25.2902 92.9852 24.7037 93.4583 24.6297C93.5825 24.6101 93.9234 24.6115 94.1552 24.4775C94.1864 24.4588 94.021 24.4477 94.218 24.3468C94.9131 23.9925 95.6618 23.6563 96.387 23.2988C96.5807 23.2032 96.2535 23.2607 96.5435 23.1207C97.341 22.7353 98.3675 22.3005 99.152 21.9846C99.4442 21.867 99.2726 22.0174 99.2965 22.0151C99.6826 21.9786 99.8171 21.741 99.9257 21.6833C100.602 21.3266 101.169 21.1672 101.812 20.8712C101.99 20.7897 101.832 20.7719 101.865 20.7502C102.21 20.5296 101.988 20.7766 102.23 20.6911C102.907 20.4523 103.646 20.1364 104.316 19.8492C104.556 19.7459 104.25 19.7741 104.466 19.6824C105.746 19.1382 107.102 18.6018 108.405 18.1428C108.651 18.0566 108.524 18.1815 108.58 18.1766C108.968 18.1439 109.424 17.8026 109.537 17.7433C110.048 17.4738 110.286 17.4482 110.748 17.2583C112.979 16.3383 115.89 15.3107 118.07 14.5652C120.881 13.6023 123.222 12.8749 125.889 11.9756C126.062 11.9178 125.859 11.8868 126.007 11.8358C127.915 11.1837 129.885 10.5899 131.809 9.9594C131.966 9.90802 131.712 9.89514 131.964 9.80985C132.48 9.63431 133.143 9.43333 133.683 9.29667C133.946 9.22986 133.621 9.40913 133.885 9.34043C134.5 9.18066 135.156 8.98696 135.781 8.78261C136.047 8.69548 135.617 8.73169 135.965 8.62516C138.371 7.88795 140.623 7.2095 143.069 6.6291C143.236 6.58951 143.431 6.72418 143.773 6.59001C143.785 6.53355 143.767 6.47644 143.764 6.42087C147.266 5.39131 150.608 4.53817 154.151 3.60331C154.295 3.5652 154.021 3.53789 154.301 3.46364C155.92 3.03384 157.503 2.59057 159.219 2.24592C159.39 2.2116 159.346 2.39924 159.835 2.24625C159.921 2.2191 160.664 2.00439 160.849 1.91872C160.874 1.90654 160.718 1.86444 160.959 1.80015C162.389 1.42117 163.782 1.08697 165.188 0.784664C165.413 0.736498 165.196 0.878426 165.357 0.844839C166.495 0.605984 167.716 0.236415 168.828 0.0419133C169.573 -0.0879552 169.337 0.121312 169.762 0.165875C169.822 0.172127 170.278 0.0637345 170.321 0.139618C170.432 0.330123 170.266 0.608917 170.41 0.805592C170.441 0.848043 171.039 0.648069 170.705 0.850317C170.682 0.86411 170.249 1.01009 170.15 1.07538C170.081 1.12064 170.238 1.17024 170.092 1.24228C169.946 1.31429 169.759 1.28629 169.514 1.38922C169.269 1.49263 169.404 1.55946 168.898 1.69595ZM42.6322 61.9841C42.9691 61.7355 42.7893 61.4889 42.5426 61.8658C42.5309 61.8843 42.6149 61.9971 42.6322 61.9841ZM14.6787 102.98C15.0433 102.572 15.0421 102.162 14.7768 102.444C14.5115 102.727 14.5678 103.105 14.6787 102.98ZM12.2092 107.978C12.5882 107.458 12.255 107.177 12.0246 107.824C12.0111 107.861 12.187 108.009 12.2092 107.978ZM167.969 0.649954C167.975 0.652437 168.301 0.575938 168.308 0.5702C168.458 0.435241 167.807 0.588288 167.969 0.649954ZM9.86728 112.964C10.0045 112.812 10.1915 112.274 10.0209 112.462C9.88349 112.614 9.6964 113.154 9.86728 112.964ZM58.3608 47.4453C58.3686 47.4446 58.555 47.2967 58.5353 47.2803C58.4713 47.2277 58.2299 47.4558 58.3608 47.4453ZM5.89671 121.489C6.48966 120.215 7.1595 119.594 6.49355 120.963C6.37296 121.211 6.63762 120.375 6.46367 120.681C6.14554 121.243 6.16982 121.724 5.79182 122.278C5.7231 122.378 5.86211 121.561 5.89729 121.487C5.89711 121.488 5.8969 121.488 5.89671 121.489ZM43.0569 62.0514C43.0653 62.0479 43.2899 61.8079 43.2924 61.7995C43.3426 61.6039 42.8897 62.0877 43.0569 62.0514ZM69.5835 39.287C69.603 39.2834 70.2416 38.8617 70.2583 38.8416C70.503 38.4891 69.21 39.3421 69.5835 39.287ZM29.4366 79.5415C29.3094 79.8914 29.0793 80.2444 28.8192 80.4111C29.0254 80.1224 29.2264 79.8333 29.4366 79.5415ZM4.6523 122.148C4.59588 121.991 4.58285 121.772 4.58971 121.603C4.59174 121.55 4.64869 121.566 4.65244 121.529C4.65969 121.457 4.62205 121.398 4.63334 121.326C4.63733 121.302 4.72512 121.314 4.72742 121.289C4.73942 121.153 4.69529 121.035 4.68806 120.901C4.65259 120.242 4.56365 119.604 4.47775 118.945C4.44936 118.728 4.47473 118.453 4.39993 118.238C4.39113 118.213 4.32164 118.242 4.31474 118.238C4.20874 118.178 4.35978 118.176 4.36964 118.122C4.40835 117.907 4.37281 117.683 4.30833 117.496C4.28068 117.416 4.15245 117.526 4.21752 117.428C4.22189 117.421 4.30273 117.427 4.30666 117.403C4.31544 117.349 4.28336 117.255 4.28196 117.214C4.27966 117.136 4.27649 117.123 4.26371 117.051C4.24691 116.952 4.26292 116.828 4.22547 116.726C4.21724 116.704 4.14408 116.749 4.12385 116.715C4.10363 116.682 4.09226 116.585 4.10476 116.55C4.11726 116.514 4.1818 116.516 4.19493 116.508C4.30592 116.438 4.11904 116.359 4.11224 116.346C3.99329 116.101 4.04584 115.861 3.99958 115.619C3.96426 115.435 3.8957 115.244 3.86676 115.068C3.8326 114.858 3.84176 114.673 3.79597 114.472C3.79123 114.451 3.7033 114.493 3.69732 114.467C3.63387 114.192 3.5917 113.914 3.60182 113.626C3.60292 113.597 3.69108 113.617 3.69704 113.587C3.73175 113.405 3.8415 113.106 3.46811 113.073C3.46016 112.955 3.44801 112.813 3.49993 112.697C3.53333 112.622 3.63418 112.669 3.58091 112.595C3.56901 112.578 3.49591 112.617 3.48392 112.591C3.43351 112.48 3.43473 112.349 3.37287 112.242C3.36011 112.22 3.29176 112.24 3.27797 112.235C3.166 112.199 3.31615 112.075 3.32451 112.052C3.38627 111.882 3.32926 111.776 3.30436 111.633C3.29863 111.6 3.21262 111.657 3.20374 111.625C3.15896 111.462 3.13445 111.289 3.14516 111.119C3.14777 111.081 3.23365 111.099 3.23896 111.08C3.26145 110.997 3.10792 111.009 3.12658 110.93C3.13032 110.913 3.2001 110.909 3.20705 110.905C3.3162 110.839 3.14253 110.832 3.13672 110.822C3.05944 110.689 3.2159 110.564 3.16514 110.431C3.1589 110.415 3.07974 110.469 3.06744 110.423C2.98506 110.119 2.94679 109.788 2.95777 109.469C2.95935 109.419 3.03055 109.441 3.03797 109.436C3.15346 109.364 2.98034 109.364 2.9711 109.35C2.9026 109.236 3.0211 109.095 2.80628 109.05C2.77714 108.519 2.56758 108.025 2.64852 107.477C2.64935 107.47 2.73388 107.466 2.73518 107.453C2.75164 107.287 2.62943 107.341 2.45327 107.267C2.40902 107.249 2.58285 107.133 2.59536 107.123C2.64152 107.088 2.76904 107.092 2.77729 107.081C2.84141 106.995 2.43861 107.084 2.42029 106.988C2.4204 106.985 2.49733 106.983 2.50323 106.974C2.52175 106.944 2.48743 106.925 2.50845 106.896C2.55721 106.829 2.75024 106.771 2.61948 106.708C2.60257 106.7 2.37596 106.76 2.37058 106.672C2.36863 106.637 2.33606 106.487 2.34292 106.442C2.34978 106.397 2.4293 106.412 2.43194 106.408C2.50824 106.275 2.55701 106.311 2.69111 106.226C2.82467 106.142 2.4833 106.223 2.44046 106.207C2.39771 106.191 2.46264 106.092 2.48682 106.066C2.51102 106.041 2.56292 106.057 2.57535 106.036C2.65628 105.895 2.39435 106.015 2.33214 105.986C2.18491 105.916 2.42642 105.795 2.43513 105.704C2.43748 105.68 2.38292 105.71 2.37354 105.69C2.3372 105.612 2.40753 105.547 2.31676 105.468C2.30196 105.455 2.13409 105.408 2.2375 105.338C2.25245 105.328 2.31982 105.336 2.32744 105.298C2.33892 105.242 2.33498 105.145 2.30305 105.093C2.27946 105.054 2.1836 105.122 2.20627 105.063C2.21642 105.037 2.28592 105.069 2.29987 105.021C2.31385 104.973 2.29014 104.863 2.28001 104.821C2.26987 104.78 2.1947 104.818 2.18869 104.815C2.15408 104.801 2.10041 104.727 2.09914 104.72C2.02114 104.362 2.09224 104.004 1.98135 103.662C1.97277 103.635 1.89236 103.669 1.89018 103.665C1.83718 103.578 2.07429 103.61 2.13645 103.53C1.96804 103.572 1.99149 103.527 1.96024 103.464C1.94503 103.434 1.88243 103.464 1.87512 103.462C1.76602 103.434 1.88907 103.376 1.91391 103.363C2.00526 103.313 1.8838 103.3 1.94479 103.267C2.0053 103.233 2.11032 103.264 2.09702 103.201C2.0327 103.194 1.88243 103.272 1.84745 103.228C1.71527 103.065 1.77566 102.701 1.76084 102.552C1.74607 102.403 1.72586 102.358 1.73171 102.268C1.74232 102.107 1.63489 102.186 1.56267 102.1C1.49042 102.015 1.78995 102.006 1.84982 101.981C1.90972 101.955 1.84263 101.953 1.87377 101.929C1.90491 101.906 1.95429 101.934 1.9597 101.892C1.96509 101.85 1.8335 101.764 1.7655 101.762C1.62146 101.759 1.4854 101.835 1.51663 101.721C1.51852 101.714 1.59866 101.719 1.60203 101.695C1.62621 101.501 1.59386 101.31 1.6113 101.118C1.61382 101.091 1.7031 101.098 1.70553 101.082C1.73108 100.92 1.59801 101.001 1.42293 100.948C1.63843 100.927 1.75936 100.856 1.73872 100.74C1.72638 100.671 1.63608 100.7 1.56233 100.668C1.5401 100.658 1.59436 100.597 1.54913 100.596C1.40126 100.594 1.25072 100.67 1.29158 100.539C1.29361 100.533 1.37466 100.535 1.37596 100.516C1.38471 100.394 1.23321 100.408 1.19127 100.286C1.15839 100.189 1.21583 99.9964 1.20925 99.8811C1.448 99.8383 1.37327 99.7423 1.2008 99.7304C1.19367 99.6561 1.16942 99.579 1.17875 99.5041C1.18189 99.4783 1.25391 99.4812 1.26078 99.4767C1.36883 99.4076 1.20295 99.4062 1.19369 99.3916C1.10038 99.2323 1.19513 99.0702 1.04581 98.9296C1.04045 98.9246 0.873143 98.9466 0.985734 98.8801C0.993541 98.8757 1.07906 98.9153 1.07034 98.8375C1.06164 98.7597 1.12295 98.5982 1.02604 98.5063C1.00269 98.484 0.85595 98.4443 0.951023 98.3721C0.963952 98.3625 1.01288 98.3611 1.03739 98.346C1.1154 98.2975 0.944716 98.3115 1.07961 98.2463C1.2145 98.1811 1.30587 98.0814 1.18744 97.9926C1.18392 97.9898 1.0465 97.9895 1.04219 97.9553C1.03543 97.9007 1.04854 97.819 1.037 97.7628C1.03143 97.736 0.952346 97.7688 0.949953 97.7645C0.86945 97.592 0.918393 97.4491 0.913426 97.2489C0.912686 97.2122 0.781001 97.1312 0.85671 97.0455C0.939548 96.9514 1.35855 96.9524 1.22925 96.7968C1.17743 96.734 0.647711 96.7425 0.889536 96.566C0.777331 96.3341 0.870445 96.0822 0.72994 95.8549C0.723683 95.8447 0.573928 95.837 0.570966 95.8107C0.56684 95.7716 0.629738 95.7378 0.628929 95.7095C0.627255 95.5906 0.550036 95.4961 0.537887 95.3834C0.533131 95.3406 0.605103 95.3423 0.599437 95.2913C0.593708 95.2403 0.496267 95.2241 0.52735 95.1477C0.551136 95.0899 0.727576 95.0032 0.736343 94.9309C0.552191 94.9631 0.547087 94.9155 0.482814 94.8414C0.470378 94.8272 0.40971 94.8565 0.400528 94.8504C0.361736 94.8258 0.409295 94.7873 0.367883 94.7648C0.357923 94.7593 0.295136 94.7709 0.283455 94.7671C0.181704 94.7351 0.307324 94.6268 0.329235 94.6081C0.412343 94.5368 0.326011 94.5271 0.35494 94.479C0.38387 94.431 0.441447 94.4837 0.45463 94.4315C0.481871 94.3232 0.447485 94.1973 0.431199 94.0956C0.424313 94.0552 0.345816 94.0986 0.342887 94.0931C0.305838 94.0138 0.378895 93.9126 0.203357 93.898C0.623591 93.7583 0.152 93.8556 0.215718 93.72C0.220912 93.7093 0.422557 93.6587 0.459323 93.6891C0.496067 93.7194 0.442699 93.7862 0.498847 93.8274C0.512047 93.8371 0.715982 93.8687 0.729321 93.8758C0.83352 93.9311 0.530764 93.9992 0.514753 94.0062C0.342394 94.084 0.563957 94.1278 0.582331 94.147C0.66644 94.2345 0.639676 94.3275 0.702052 94.4022C0.74247 94.4511 0.943082 94.4186 0.945106 94.4627C0.951973 94.6091 0.682963 94.7117 0.949878 94.8003C1.00683 94.8194 1.21956 94.7493 1.06761 94.8851C1.05802 94.8937 0.915633 95.0001 1.02329 95.0256C1.03686 95.0288 1.1004 95.0165 1.10713 95.0229C1.15101 95.0655 1.10658 95.1079 1.141 95.1568C1.17541 95.2058 1.22379 95.2633 1.21382 95.3286C1.20792 95.3678 1.09843 95.4376 1.07278 95.4607C0.998674 95.5264 1.14578 95.5538 1.05047 95.6039C0.954697 95.6543 0.788752 95.6227 0.738538 95.7168C0.90429 95.6885 1.07514 95.6633 1.24218 95.6366C1.27028 95.8166 1.25025 96.0026 1.29156 96.1807C1.29685 96.2027 1.38135 96.1631 1.3893 96.1863C1.42248 96.2843 1.37585 96.3841 1.42085 96.4837C1.45602 96.5607 1.56684 96.6314 1.60654 96.7114C1.42732 96.7988 1.51525 96.912 1.51524 97.0063C1.51531 97.0393 1.46443 97.0467 1.45226 97.0726C1.40758 97.1697 1.56701 97.0979 1.59773 97.1164C1.72901 97.1957 1.35258 97.276 1.38443 97.3929C1.38599 97.3991 1.60207 97.4377 1.61664 97.4459C1.71122 97.4977 1.5486 97.4704 1.54169 97.5153C1.52906 97.5973 1.49105 97.6598 1.56717 97.7387C1.58964 97.7617 1.72721 97.8009 1.63974 97.8704C1.62829 97.8795 1.56098 97.8885 1.5581 97.8946C1.51163 98.0048 1.72142 97.9676 1.80291 98.0101C1.88438 98.0526 1.75627 98.1663 1.71797 98.1918C1.61896 98.2582 1.66525 98.1653 1.6542 98.1648C1.52286 98.1594 1.55646 98.2183 1.55495 98.2685C1.35106 98.3144 1.37614 98.3793 1.55422 98.3203C1.57365 98.3137 1.54741 98.2799 1.55495 98.2685C1.76432 98.2725 1.80413 98.3416 1.63147 98.459C1.55053 98.514 1.44086 98.4973 1.50051 98.6063C1.52748 98.6558 1.66492 98.6087 1.71227 98.6479C1.82033 98.7375 1.71472 98.9006 1.75626 99.0063C1.77135 99.0446 1.84135 98.9912 1.85432 99.0169C1.889 99.0851 1.84303 99.1597 1.88649 99.2265C1.89053 99.2325 1.96846 99.2011 1.97376 99.2235C2.01555 99.3925 1.99189 99.551 2.02428 99.7296C2.03997 99.8159 2.11383 99.9615 2.12178 100.052C2.13603 100.21 2.05438 100.423 2.10804 100.549C2.14271 100.632 2.2201 100.598 2.28228 100.624C2.40276 100.675 2.23509 100.838 2.20865 100.86C2.20777 100.861 2.17461 100.79 2.14054 100.838C2.05829 100.877 2.20812 100.86 2.20865 100.86C2.1916 100.875 2.20132 101.027 2.22238 101.053C2.23387 101.068 2.3089 101.044 2.31345 101.052C2.41968 101.237 2.47682 101.432 2.47905 101.639C2.47817 101.643 2.39134 101.654 2.39034 101.663C2.37423 101.787 2.49336 101.841 2.57388 101.925C2.65438 102.009 2.64795 102.089 2.51138 102.174C2.54365 102.243 2.49821 102.359 2.47001 102.426C2.44183 102.494 2.61047 102.47 2.61477 102.475C2.75159 102.619 2.67393 102.732 2.69131 102.905C2.69929 102.987 2.75395 103.143 2.78883 103.227C2.81668 103.293 2.78543 103.343 2.82256 103.402C2.82755 103.41 2.90028 103.387 2.90364 103.389C3.00614 103.443 2.8178 103.443 2.78811 103.464C2.68011 103.54 2.62345 103.585 2.69629 103.665C2.713 103.684 2.98646 103.696 3.00904 103.731C3.03791 103.777 2.9405 103.776 2.97312 103.824C2.97583 103.828 3.03355 103.816 3.0371 103.849C3.05436 104 3.05158 104.17 3.08684 104.324C3.09144 104.345 3.17812 104.3 3.18626 104.331C3.22442 104.472 3.25093 104.631 3.23452 104.779C3.23019 104.816 3.16178 104.806 3.14411 104.817C3.03731 104.885 3.21752 104.919 3.22276 104.929C3.35209 105.17 3.23741 105.395 3.35933 105.643C3.36628 105.656 3.56701 105.732 3.42195 105.81C3.41231 105.815 3.26359 105.894 3.37966 105.916C3.38692 105.917 3.46249 105.872 3.46418 105.926C3.46588 105.98 3.53622 106.054 3.46062 106.144C3.43683 106.172 3.28958 106.256 3.42808 106.3C3.43769 106.303 3.74157 106.355 3.55284 106.429C3.52175 106.441 3.31326 106.474 3.43499 106.536C3.45854 106.547 3.49942 106.51 3.53606 106.546C3.59249 106.6 3.55276 106.694 3.65974 106.754C3.67865 106.764 3.83021 106.795 3.73215 106.861C3.7168 106.872 3.645 106.871 3.64186 106.897C3.62662 107.019 3.69586 107.131 3.67022 107.258C3.66127 107.303 3.54538 107.303 3.52361 107.352C3.50186 107.401 3.48958 107.493 3.5493 107.529C3.60903 107.565 3.77794 107.481 3.80509 107.546C3.92303 107.83 3.87392 108.142 3.91452 108.44C3.92053 108.484 3.97745 108.436 3.99089 108.5C4.04068 108.737 4.17828 109.135 4.08181 109.367C4.00456 109.553 3.88248 109.361 3.86223 109.495C3.8527 109.56 4.07248 109.587 4.0818 109.6C4.17532 109.731 4.10242 109.849 4.15511 109.972C4.16602 109.998 4.24508 109.956 4.25343 109.978C4.28271 110.053 4.26068 110.141 4.2816 110.214C4.29118 110.247 4.35419 110.229 4.35504 110.26C4.35783 110.335 4.34314 110.405 4.29654 110.488C4.29229 110.496 4.20415 110.467 4.21146 110.522C4.22351 110.61 4.18482 110.73 4.26524 110.82C4.28935 110.846 4.43621 110.82 4.34715 110.903C4.32856 110.921 4.14919 110.937 4.31556 110.983C4.34323 110.991 4.57235 111.078 4.45178 111.165C4.42006 111.188 4.28385 111.256 4.31333 111.288C4.31787 111.292 4.39292 111.258 4.40627 111.286C4.45191 111.387 4.46441 111.498 4.50956 111.602C4.52179 111.629 4.59515 111.571 4.61075 111.612C4.65378 111.727 4.66101 111.878 4.65742 111.999C4.65595 112.043 4.58283 112.026 4.57608 112.031C4.46602 112.103 4.63294 112.102 4.64549 112.117C4.72134 112.209 4.66041 112.302 4.69846 112.393C4.70877 112.418 4.78217 112.385 4.79001 112.389C4.86728 112.431 4.72151 112.416 4.71277 112.454C4.68784 112.558 4.71428 112.663 4.7425 112.758C4.75298 112.793 4.83458 112.736 4.84295 112.768C4.89419 112.954 4.92295 113.152 4.9088 113.346C4.90597 113.383 4.83314 113.374 4.81882 113.384C4.71855 113.455 4.88213 113.5 4.89957 113.514C4.97921 113.578 4.92411 113.619 4.94827 113.685C5.06735 114.004 5.10447 114.42 5.13874 114.736C5.1838 115.149 5.17826 115.476 5.26869 115.86C5.27436 115.885 5.36102 115.843 5.36707 115.864C5.44107 116.133 5.45653 116.41 5.535 116.68C5.54128 116.702 5.62173 116.653 5.63471 116.688C5.66196 116.76 5.67508 116.854 5.66164 116.935C5.65526 116.974 5.57163 116.939 5.56671 116.978C5.55511 117.069 5.56638 117.162 5.59697 117.247C5.61018 117.284 5.68803 117.21 5.6983 117.259C5.77001 117.589 5.84709 117.912 5.79597 118.269C5.79245 118.294 5.61623 118.348 5.66004 118.39C5.71069 118.385 5.76944 118.373 5.82315 118.365C5.94353 118.842 5.97181 119.332 6.05403 119.819C6.05751 119.839 6.14622 119.786 6.15345 119.825C6.19545 120.054 6.26402 120.272 6.2136 120.524C6.20874 120.549 6.03866 120.569 6.07702 120.632C6.08394 120.643 6.12588 120.742 6.16736 120.762C6.17355 120.765 6.24831 120.731 6.25689 120.764C6.3054 120.955 6.32589 121.16 6.31458 121.362C6.3126 121.395 6.2229 121.377 6.22077 121.401C6.20629 121.566 6.30213 121.725 6.25487 121.89C6.22293 122 6.07168 121.99 5.93987 122.07C5.92128 122.082 5.9299 122.144 5.84793 122.163C5.64185 122.211 5.40874 122.224 5.18975 122.278C5.14256 122.29 5.20973 122.364 5.08515 122.336C5.07679 122.334 5.02709 122.281 4.98519 122.273C4.95619 122.268 4.87575 122.303 4.83715 122.288C4.79858 122.274 4.86458 122.237 4.81729 122.21C4.7695 122.182 4.67688 122.216 4.6523 122.148ZM2.34439 102.729C2.27464 102.8 2.57005 102.752 2.48839 102.705C2.4841 102.703 2.34778 102.725 2.34439 102.729ZM1.0284 96.0437C0.912497 96.1406 1.11247 96.1539 1.20289 96.0839C1.2932 96.0139 1.06351 96.0142 1.0284 96.0437ZM0.791521 95.3116C0.705362 95.4155 1.12459 95.3498 1.02317 95.2752C1.01742 95.2708 0.79652 95.3055 0.791521 95.3116ZM5.85248 121.83C5.84873 121.832 5.8534 121.877 5.85747 121.878C5.95532 121.884 5.9459 121.793 5.85248 121.83ZM0.547335 94.5868C0.495975 94.6239 0.575453 94.6875 0.639331 94.6415C0.690716 94.6044 0.611218 94.5407 0.547335 94.5868ZM2.57813 105.675C2.57392 105.676 2.57606 105.709 2.60069 105.704C2.68 105.686 2.64903 105.646 2.57813 105.675ZM0.302624 93.3227C0.322381 93.5126 -0.000339743 93.6912 -9.94497e-05 93.4803C-6.39428e-05 93.4421 0.124742 93.5389 0.146871 93.4861C0.187132 93.3895 -0.0398063 93.3735 0.0593909 93.264C0.0775826 93.2441 0.302262 93.3117 0.303163 93.323C0.302987 93.3229 0.302812 93.3228 0.302624 93.3227ZM1.99746 102.828C1.99379 102.83 1.99853 102.875 2.00257 102.875C2.10043 102.881 2.09095 102.791 1.99746 102.828ZM2.75141 107.581C2.74359 107.585 2.75539 107.689 2.76366 107.691C2.9264 107.716 2.903 107.505 2.75141 107.581ZM1.21528 99.8781C1.11223 99.8475 1.09019 99.7916 1.20071 99.7306C1.2036 99.78 1.21186 99.8286 1.21528 99.8781ZM5.60943 121.199C5.77895 121.102 6.02449 121.032 6.21753 120.995C6.27797 120.984 6.26957 121.044 6.31221 121.038C6.39554 121.027 6.45618 120.974 6.54012 120.966C6.56803 120.964 6.56882 121.054 6.59737 121.05C6.75357 121.027 6.88009 120.952 7.0309 120.91C7.7738 120.704 8.48333 120.449 9.21616 120.193C9.45778 120.108 9.77442 120.062 10.0066 119.932C10.0336 119.916 9.98886 119.855 9.99201 119.847C10.0422 119.726 10.0699 119.876 10.133 119.871C10.3833 119.854 10.6314 119.761 10.8333 119.648C10.9191 119.6 10.7733 119.501 10.8953 119.54C10.9037 119.543 10.9102 119.624 10.9382 119.622C11.0015 119.617 11.1029 119.56 11.1489 119.548C11.2375 119.526 11.2511 119.519 11.3309 119.488C11.4403 119.445 11.5841 119.429 11.694 119.365C11.7173 119.351 11.6542 119.29 11.6887 119.262C11.7233 119.233 11.8309 119.197 11.8735 119.2C11.916 119.203 11.9247 119.267 11.9364 119.278C12.0339 119.37 12.0918 119.164 12.1058 119.154C12.3641 118.972 12.6448 118.962 12.9123 118.853C13.1153 118.77 13.3205 118.653 13.5155 118.578C13.7478 118.49 13.9593 118.451 14.1803 118.353C14.2036 118.343 14.1404 118.267 14.1689 118.254C14.4711 118.119 14.7792 118.005 15.1082 117.94C15.1413 117.934 15.133 118.027 15.1679 118.025C15.3806 118.012 15.7383 118.043 15.7137 117.664C15.8457 117.625 16.0051 117.576 16.1458 117.598C16.2366 117.611 16.1995 117.724 16.2748 117.651C16.2919 117.635 16.2358 117.573 16.2636 117.554C16.3806 117.475 16.53 117.442 16.6412 117.353C16.6637 117.335 16.63 117.272 16.6325 117.257C16.6549 117.137 16.8212 117.253 16.8481 117.256C17.0523 117.273 17.1623 117.189 17.3209 117.127C17.3577 117.112 17.2786 117.042 17.3128 117.025C17.4904 116.938 17.6827 116.869 17.8775 116.835C17.9209 116.828 17.9148 116.918 17.9371 116.918C18.0351 116.919 17.9961 116.77 18.089 116.768C18.1085 116.767 18.125 116.835 18.131 116.841C18.2244 116.932 18.2027 116.758 18.2137 116.749C18.352 116.638 18.5192 116.761 18.6619 116.676C18.6789 116.666 18.6048 116.601 18.6547 116.577C18.9864 116.416 19.3559 116.292 19.7197 116.22C19.7763 116.209 19.7636 116.285 19.77 116.291C19.8716 116.387 19.8423 116.215 19.857 116.202C19.9746 116.105 20.1544 116.186 20.1698 115.961C20.7677 115.794 21.2937 115.457 21.9288 115.395C21.9368 115.394 21.9554 115.477 21.9712 115.475C22.162 115.448 22.0798 115.341 22.1344 115.147C22.1482 115.098 22.3083 115.24 22.3214 115.25C22.3692 115.287 22.3868 115.414 22.4 115.42C22.5082 115.461 22.3402 115.084 22.446 115.041C22.4495 115.041 22.4642 115.117 22.4759 115.12C22.5124 115.131 22.5284 115.092 22.5652 115.105C22.6497 115.136 22.7471 115.312 22.7976 115.166C22.8038 115.147 22.6976 114.938 22.7962 114.91C22.8355 114.899 23.0007 114.827 23.0531 114.823C23.1054 114.818 23.1017 114.9 23.1063 114.902C23.2695 114.943 23.2374 115.001 23.3559 115.112C23.4741 115.223 23.3247 114.905 23.3357 114.858C23.3467 114.812 23.4698 114.85 23.5032 114.868C23.5366 114.885 23.5264 114.941 23.5526 114.948C23.7258 114.991 23.5457 114.763 23.5687 114.693C23.6228 114.529 23.8014 114.737 23.9059 114.722C23.9341 114.718 23.8909 114.672 23.9117 114.657C23.9943 114.601 24.0793 114.654 24.1543 114.543C24.1666 114.525 24.1911 114.347 24.2881 114.431C24.302 114.443 24.3047 114.512 24.3487 114.51C24.4146 114.507 24.5238 114.477 24.5776 114.432C24.6173 114.399 24.5247 114.321 24.5948 114.328C24.626 114.332 24.602 114.409 24.6586 114.41C24.715 114.412 24.8362 114.36 24.882 114.339C24.9276 114.318 24.8717 114.253 24.8734 114.247C24.8843 114.208 24.9588 114.136 24.9667 114.133C25.3604 113.962 25.7782 113.94 26.1481 113.741C26.1772 113.725 26.1248 113.654 26.1289 113.651C26.2194 113.576 26.2229 113.819 26.3241 113.86C26.2484 113.704 26.3031 113.716 26.3692 113.668C26.4009 113.645 26.3565 113.591 26.3571 113.583C26.3711 113.468 26.4571 113.575 26.4766 113.596C26.5485 113.674 26.5422 113.55 26.5907 113.602C26.639 113.653 26.6214 113.765 26.6911 113.736C26.6875 113.67 26.5744 113.541 26.6178 113.495C26.7816 113.321 27.2049 113.287 27.3716 113.233C27.538 113.18 27.5859 113.148 27.6883 113.131C27.8735 113.099 27.766 113.013 27.8508 112.919C27.9359 112.825 27.9958 113.12 28.0349 113.173C28.0738 113.226 28.0654 113.159 28.0972 113.183C28.1288 113.208 28.105 113.265 28.1535 113.259C28.202 113.254 28.2785 113.1 28.2689 113.032C28.2486 112.889 28.1392 112.773 28.2741 112.775C28.2818 112.775 28.2896 112.856 28.318 112.853C28.5421 112.826 28.753 112.745 28.9743 112.712C29.0047 112.708 29.0126 112.798 29.0307 112.796C29.2193 112.779 29.1044 112.668 29.1354 112.481C29.1959 112.689 29.2965 112.791 29.4243 112.74C29.5012 112.71 29.4526 112.628 29.4771 112.546C29.4844 112.522 29.563 112.56 29.5561 112.515C29.534 112.367 29.4219 112.238 29.5775 112.244C29.5844 112.245 29.5959 112.326 29.6177 112.322C29.7582 112.299 29.7165 112.152 29.8488 112.079C29.9524 112.021 30.1811 112.028 30.3109 111.991C30.3996 112.217 30.4959 112.118 30.4806 111.944C30.5637 111.917 30.6472 111.873 30.7338 111.863C30.7635 111.859 30.7724 111.932 30.7786 111.937C30.8752 112.027 30.849 111.862 30.864 111.849C31.0292 111.715 31.2291 111.766 31.3637 111.582C31.3684 111.575 31.3154 111.415 31.4098 111.509C31.4161 111.516 31.3855 111.611 31.4724 111.582C31.5592 111.553 31.7528 111.572 31.8409 111.452C31.8623 111.423 31.8827 111.267 31.9807 111.343C31.9938 111.353 32.0036 111.401 32.0248 111.422C32.0929 111.486 32.0484 111.321 32.1451 111.438C32.2417 111.554 32.3702 111.619 32.4511 111.479C32.4538 111.474 32.4311 111.338 32.4691 111.325C32.5299 111.304 32.625 111.296 32.6868 111.269C32.7163 111.257 32.6658 111.187 32.6703 111.184C32.8526 111.059 33.0231 111.07 33.2495 111.013C33.2911 111.003 33.3609 110.851 33.471 110.904C33.5917 110.962 33.6607 111.378 33.8157 111.209C33.8784 111.141 33.7799 110.618 34.0207 110.812C34.2652 110.64 34.5668 110.667 34.8013 110.469C34.8118 110.46 34.7955 110.309 34.8248 110.299C34.8685 110.285 34.9174 110.339 34.9494 110.331C35.0842 110.298 35.1785 110.197 35.3043 110.155C35.3521 110.14 35.3623 110.211 35.4193 110.192C35.4761 110.174 35.4782 110.073 35.5701 110.084C35.6397 110.092 35.7678 110.245 35.8514 110.235C35.7839 110.06 35.837 110.043 35.9104 109.96C35.9244 109.944 35.881 109.891 35.8864 109.88C35.9078 109.836 35.9595 109.873 35.9781 109.826C35.9826 109.814 35.959 109.755 35.9614 109.743C35.9806 109.633 36.1246 109.73 36.1495 109.747C36.2444 109.811 36.2409 109.722 36.3004 109.739C36.3598 109.755 36.3096 109.826 36.3711 109.825C36.4985 109.824 36.6358 109.757 36.7484 109.715C36.7932 109.697 36.7307 109.631 36.7364 109.626C36.8203 109.569 36.9475 109.615 36.9346 109.437C37.1636 109.818 36.9741 109.375 37.1386 109.403C37.1517 109.405 37.243 109.592 37.2147 109.637C37.1864 109.681 37.1016 109.646 37.0643 109.712C37.0554 109.728 37.0538 109.938 37.048 109.953C37.0026 110.071 36.8746 109.788 36.8639 109.774C36.7467 109.623 36.7341 109.855 36.7155 109.878C36.6302 109.984 36.5202 109.982 36.4458 110.063C36.397 110.116 36.4676 110.307 36.4179 110.32C36.2528 110.365 36.0912 110.125 36.0354 110.413C36.0233 110.474 36.1385 110.667 35.9589 110.551C35.9476 110.544 35.8029 110.431 35.792 110.544C35.7907 110.558 35.8152 110.618 35.8092 110.626C35.7681 110.681 35.7126 110.648 35.6628 110.695C35.613 110.742 35.5558 110.805 35.48 110.812C35.4344 110.816 35.3368 110.726 35.3063 110.706C35.2193 110.65 35.2128 110.803 35.14 110.721C35.0668 110.639 35.0747 110.467 34.9595 110.441C35.0195 110.598 35.0768 110.761 35.135 110.92C34.9355 110.995 34.7208 111.023 34.5256 111.111C34.5015 111.122 34.5606 111.195 34.5356 111.209C34.43 111.267 34.3088 111.247 34.2033 111.318C34.1218 111.373 34.0601 111.501 33.976 111.561C33.8467 111.406 33.733 111.523 33.6259 111.547C33.5884 111.556 33.5714 111.507 33.5401 111.502C33.4224 111.483 33.5306 111.622 33.5148 111.658C33.4467 111.809 33.2924 111.456 33.165 111.518C33.1582 111.521 33.1507 111.746 33.1438 111.762C33.1009 111.87 33.1046 111.701 33.0525 111.706C32.9573 111.715 32.8799 111.693 32.8031 111.789C32.7808 111.818 32.7593 111.964 32.6658 111.896C32.6535 111.887 32.6321 111.822 32.6246 111.821C32.4917 111.803 32.5691 112.002 32.5346 112.094C32.5 112.186 32.3494 112.088 32.314 112.057C32.222 111.976 32.3352 111.998 32.334 111.986C32.318 111.855 32.2568 111.903 32.1997 111.915C32.1133 111.725 32.0438 111.766 32.1407 111.928C32.1514 111.945 32.1854 111.91 32.1997 111.915C32.2302 112.124 32.1584 112.181 31.9962 112.04C31.9202 111.974 31.9207 111.861 31.8069 111.949C31.7553 111.988 31.8319 112.113 31.7953 112.17C31.7117 112.3 31.5088 112.238 31.3958 112.307C31.3548 112.332 31.4272 112.387 31.4002 112.407C31.3286 112.459 31.2362 112.433 31.1677 112.493C31.1615 112.499 31.2102 112.568 31.1857 112.579C31.0009 112.664 30.8169 112.682 30.6196 112.761C30.5243 112.799 30.3714 112.91 30.2695 112.941C30.093 112.997 29.8379 112.971 29.7031 113.057C29.615 113.113 29.6669 113.181 29.6473 113.249C29.6096 113.382 29.397 113.258 29.3669 113.238C29.3659 113.237 29.4405 113.186 29.3809 113.164C29.3223 113.093 29.3677 113.237 29.3669 113.238C29.3473 113.225 29.1767 113.274 29.1502 113.301C29.1358 113.317 29.1751 113.385 29.167 113.392C28.9747 113.545 28.7632 113.652 28.5277 113.709C28.5232 113.709 28.4962 113.625 28.4861 113.627C28.3431 113.643 28.3011 113.775 28.2191 113.877C28.1372 113.979 28.0452 113.993 27.9261 113.88C27.8534 113.93 27.7138 113.915 27.6328 113.904C27.5517 113.894 27.6065 114.055 27.602 114.061C27.4615 114.234 27.3203 114.186 27.1269 114.248C27.0348 114.278 26.867 114.372 26.7774 114.429C26.7067 114.474 26.6457 114.456 26.5849 114.508C26.5766 114.515 26.6147 114.581 26.6129 114.585C26.5685 114.701 26.5366 114.514 26.5079 114.49C26.4039 114.402 26.3435 114.358 26.2642 114.451C26.2459 114.473 26.2786 114.747 26.2422 114.779C26.1946 114.819 26.1794 114.722 26.1306 114.767C26.1264 114.771 26.1496 114.825 26.1131 114.837C25.9439 114.894 25.7512 114.935 25.582 115.01C25.5588 115.02 25.624 115.094 25.5911 115.11C25.4366 115.185 25.2613 115.253 25.0902 115.275C25.048 115.28 25.0472 115.21 25.0316 115.195C24.9366 115.107 24.929 115.294 24.9184 115.302C24.6662 115.493 24.3913 115.438 24.1304 115.623C24.1164 115.634 24.0644 115.853 23.9513 115.729C23.9437 115.721 23.8299 115.594 23.824 115.715C23.8237 115.722 23.8881 115.785 23.8269 115.801C23.7657 115.817 23.6931 115.906 23.5791 115.854C23.5431 115.838 23.423 115.714 23.3958 115.863C23.3942 115.873 23.3867 116.188 23.2701 116.02C23.2511 115.992 23.1787 115.794 23.1295 115.931C23.1202 115.957 23.1691 115.988 23.1349 116.034C23.0826 116.104 22.9695 116.089 22.9196 116.21C22.911 116.232 22.9016 116.39 22.8099 116.31C22.7956 116.298 22.7842 116.226 22.7544 116.23C22.6127 116.247 22.4969 116.344 22.3492 116.352C22.2969 116.355 22.2775 116.24 22.2182 116.231C22.1589 116.222 22.0516 116.234 22.0212 116.302C21.9908 116.371 22.1137 116.517 22.0442 116.561C21.7422 116.752 21.3794 116.784 21.0483 116.902C20.9992 116.919 21.0636 116.963 20.993 116.993C20.7326 117.104 20.303 117.344 20.0236 117.309C19.7998 117.281 19.9975 117.109 19.8413 117.124C19.766 117.132 19.7727 117.357 19.759 117.37C19.6259 117.496 19.4806 117.455 19.3487 117.539C19.3215 117.557 19.3826 117.624 19.3591 117.638C19.279 117.687 19.1747 117.688 19.0955 117.727C19.06 117.745 19.0914 117.803 19.0557 117.812C18.9706 117.835 18.8888 117.838 18.787 117.814C18.7777 117.811 18.7955 117.716 18.7346 117.738C18.6361 117.773 18.4932 117.766 18.4053 117.869C18.3794 117.9 18.4342 118.038 18.3244 117.972C18.3014 117.958 18.253 117.784 18.2285 117.961C18.2243 117.991 18.164 118.241 18.0451 118.144C18.0138 118.118 17.9127 118.001 17.8816 118.038C17.8776 118.044 17.9294 118.109 17.8994 118.13C17.7932 118.201 17.6684 118.243 17.5587 118.315C17.5294 118.334 17.608 118.391 17.5635 118.418C17.4409 118.49 17.2701 118.537 17.1327 118.565C17.082 118.575 17.0887 118.498 17.0824 118.492C16.9816 118.402 17.0109 118.567 16.9962 118.583C16.9042 118.683 16.7887 118.646 16.6916 118.708C16.6648 118.725 16.7147 118.789 16.7116 118.798C16.6776 118.885 16.6692 118.737 16.6256 118.738C16.5032 118.74 16.3877 118.794 16.2845 118.847C16.2466 118.866 16.325 118.932 16.2906 118.949C16.0877 119.048 15.8675 119.128 15.645 119.164C15.603 119.171 15.6008 119.097 15.5868 119.085C15.4897 119.004 15.4663 119.178 15.4532 119.199C15.3936 119.295 15.3375 119.251 15.2673 119.292C14.9245 119.493 14.4591 119.638 14.1055 119.754C13.645 119.906 13.2721 119.986 12.8511 120.175C12.8243 120.187 12.8867 120.262 12.8641 120.274C12.5701 120.417 12.2587 120.505 11.9659 120.653C11.9418 120.665 12.0108 120.732 11.9732 120.754C11.8964 120.8 11.7909 120.837 11.6976 120.845C11.6521 120.849 11.6778 120.756 11.6326 120.762C11.5273 120.774 11.4235 120.809 11.3316 120.862C11.2926 120.884 11.389 120.943 11.3356 120.965C10.9728 121.122 10.619 121.283 10.205 121.325C10.1766 121.328 10.0854 121.167 10.0447 121.222C10.0598 121.271 10.0825 121.326 10.1012 121.377C9.57917 121.621 9.02765 121.776 8.4894 121.984C8.46672 121.993 8.54221 122.067 8.49848 122.085C8.24539 122.186 8.01028 122.31 7.71563 122.326C7.68645 122.328 7.6353 122.164 7.5695 122.219C7.55795 122.228 7.45277 122.296 7.43731 122.342C7.43542 122.349 7.48618 122.414 7.4504 122.431C7.24193 122.529 7.01183 122.603 6.78084 122.644C6.74351 122.651 6.7481 122.557 6.72123 122.561C6.53086 122.59 6.36654 122.726 6.17183 122.722C6.04138 122.719 6.02721 122.566 5.9139 122.457C5.89789 122.441 5.828 122.466 5.7928 122.389C5.70414 122.197 5.6503 121.969 5.55186 121.766C5.53071 121.722 5.4584 121.808 5.46873 121.677C5.46957 121.669 5.5216 121.606 5.52306 121.562C5.52415 121.532 5.47136 121.461 5.48145 121.419C5.49153 121.377 5.54415 121.433 5.56725 121.379C5.59015 121.324 5.53655 121.241 5.60943 121.199ZM27.2682 113.858C27.1764 113.808 27.28 114.088 27.3191 113.995C27.3208 113.99 27.2729 113.861 27.2682 113.858ZM34.637 110.814C34.5076 110.724 34.526 110.926 34.6206 110.997C34.7152 111.069 34.6764 110.841 34.637 110.814ZM35.4284 110.388C35.296 110.33 35.441 110.729 35.5086 110.609C35.5126 110.602 35.4362 110.392 35.4284 110.388ZM6.17173 122.307C6.16939 122.304 6.11857 122.32 6.11887 122.325C6.12834 122.423 6.22994 122.39 6.17173 122.307ZM36.2103 109.958C36.1595 109.916 36.1006 110.012 36.1637 110.063C36.2144 110.104 36.2734 110.009 36.2103 109.958ZM23.9634 114.856C23.9607 114.853 23.9238 114.863 23.934 114.886C23.967 114.961 24.0076 114.919 23.9634 114.856ZM37.6043 109.386C37.3921 109.455 37.1351 109.181 37.3746 109.127C37.418 109.117 37.329 109.266 37.3927 109.274C37.509 109.289 37.4891 109.059 37.6302 109.129C37.6558 109.142 37.6167 109.383 37.6041 109.387C37.6042 109.386 37.6042 109.386 37.6043 109.386ZM27.0978 113.54C27.0951 113.537 27.0447 113.553 27.045 113.557C27.0542 113.656 27.1558 113.623 27.0978 113.54ZM21.8285 115.524C21.8226 115.517 21.7059 115.556 21.7051 115.565C21.7042 115.733 21.9403 115.655 21.8285 115.524ZM30.3153 111.997C30.3328 111.886 30.3925 111.85 30.4803 111.944C30.4248 111.959 30.3709 111.98 30.3153 111.997Z" fill="currentColor"/>
</svg>
