<svg width="178" height="176" viewBox="0 0 178 176" fill="none" xmlns="http://www.w3.org/2000/svg">
<g id="Tag">
<g id="Vector 1">
<path d="M98.4446 49.1434L42.6964 33.5957L50.8022 49.6028L87.9619 60.9869L98.4446 49.1434Z" fill="#BB99FF" fill-opacity="0.3"/>
<path d="M42.6964 33.5957L98.4446 49.1434L87.9619 60.9869L50.8022 49.6028M42.6964 33.5957C37.741 39.1945 32.6727 45.615 32.0232 45.6546C31.3737 45.6942 47.4478 78.1243 56.5141 96.5175L68.3308 83.1666L50.8022 49.6028M42.6964 33.5957L50.8022 49.6028" stroke="#BB99FF" stroke-width="2" stroke-linecap="round" stroke-linejoin="round"/>
</g>
<g id="TagLinesGroup">
<path id="Vector 5" d="M95.9984 48.6521L85.9862 60.1145" stroke="#BB99FF" stroke-linecap="round" stroke-linejoin="round"/>
<path id="Vector 6" d="M93.5416 48.1154L83.6228 59.3058" stroke="#BB99FF" stroke-linecap="round" stroke-linejoin="round"/>
<path id="Vector 7" d="M90.8216 47.1824L81.1747 58.4661" stroke="#BB99FF" stroke-linecap="round" stroke-linejoin="round"/>
<path id="Vector 8" d="M88.6454 46.4359L78.6332 57.8983" stroke="#BB99FF" stroke-linecap="round" stroke-linejoin="round"/>
<path id="Vector 9" d="M86.4052 45.897L76.4572 57.1518" stroke="#BB99FF" stroke-linecap="round" stroke-linejoin="round"/>
<path id="Vector 10" d="M83.3154 45.641L73.7618 56.6527" stroke="#BB99FF" stroke-linecap="round" stroke-linejoin="round"/>
<path id="Vector 11" d="M81.1393 44.8946L71.5857 55.9063" stroke="#BB99FF" stroke-linecap="round" stroke-linejoin="round"/>
<path id="Vector 12" d="M78.8699 44.4202L69.4096 55.1598" stroke="#BB99FF" stroke-linecap="round" stroke-linejoin="round"/>
<path id="Vector 13" d="M76.7871 43.4017L67.2336 54.4134" stroke="#BB99FF" stroke-linecap="round" stroke-linejoin="round"/>
<path id="Vector 14" d="M74.611 42.6552L65.0574 53.6669" stroke="#BB99FF" stroke-linecap="round" stroke-linejoin="round"/>
<path id="Vector 15" d="M71.9763 42.3595L62.8814 52.9205" stroke="#BB99FF" stroke-linecap="round" stroke-linejoin="round"/>
<path id="Vector 16" d="M69.8935 41.3411L60.7053 52.1741" stroke="#BB99FF" stroke-linecap="round" stroke-linejoin="round"/>
<path id="Vector 17" d="M67.6242 40.8666L58.0706 51.8783" stroke="#BB99FF" stroke-linecap="round" stroke-linejoin="round"/>
<path id="Vector 18" d="M65.4481 40.1202L55.8945 51.1319" stroke="#BB99FF" stroke-linecap="round" stroke-linejoin="round"/>
<path id="Vector 19" d="M63.1787 39.6457L53.7184 50.3854" stroke="#BB99FF" stroke-linecap="round" stroke-linejoin="round"/>
<path id="Vector 20" d="M61.0026 38.8993L51.449 49.911" stroke="#BB99FF" stroke-linecap="round" stroke-linejoin="round"/>
<path id="Vector 21" d="M58.8265 38.1529L50.6488 47.8124" stroke="#BB99FF" stroke-linecap="round" stroke-linejoin="round"/>
<path id="Vector 22" d="M56.5571 37.6784L49.5765 45.6205" stroke="#BB99FF" stroke-linecap="round" stroke-linejoin="round"/>
<path id="Vector 23" d="M54.109 36.8387L48.411 43.7006" stroke="#BB99FF" stroke-linecap="round" stroke-linejoin="round"/>
<path id="Vector 24" d="M51.8396 36.3642L47.3387 41.5087" stroke="#BB99FF" stroke-linecap="round" stroke-linejoin="round"/>
<path id="Vector 25" d="M49.6635 35.6178L46.1733 39.5888" stroke="#BB99FF" stroke-linecap="round" stroke-linejoin="round"/>
<path id="Vector 26" d="M47.2497 35.24L45.0119 37.8982" stroke="#BB99FF" stroke-linecap="round" stroke-linejoin="round"/>
<path id="Vector 27" d="M45.218 34.3969L44.2075 35.5704" stroke="#BB99FF" stroke-linecap="round" stroke-linejoin="round"/>
</g>
<path id="Vector 3" d="M148.012 66.9013L39.5666 89.1981L25.8439 104.702L136.195 80.2522L148.012 66.9013Z" fill="#BB99FF" fill-opacity="0.48" stroke="#BB99FF" stroke-width="2" stroke-linecap="round" stroke-linejoin="round"/>
<g id="Vector 2">
<path d="M126.174 72.918L148.377 126.365L131.504 120.263L115.691 84.7615L126.174 72.918Z" fill="#E7DFFE"/>
<path d="M148.377 126.365L126.174 72.918L115.691 84.7615L131.504 120.263M148.377 126.365C143.422 131.964 137.664 137.774 137.704 138.424C137.744 139.073 103.601 127.057 84.243 120.292L96.0598 106.941L131.504 120.263M148.377 126.365L131.504 120.263" stroke="#BB99FF" stroke-width="2" stroke-linecap="round" stroke-linejoin="round"/>
</g>
<g id="TagLinesGroup_2">
<path id="Vector 4" d="M126.884 74.716L116.498 86.3502" stroke="#BB99FF" stroke-linecap="round" stroke-linejoin="round"/>
<path id="Vector 5_2" d="M127.49 76.6571L117.24 87.908" stroke="#BB99FF" stroke-linecap="round" stroke-linejoin="round"/>
<path id="Vector 6_2" d="M128.095 78.5982L118.106 89.7255" stroke="#BB99FF" stroke-linecap="round" stroke-linejoin="round"/>
<path id="Vector 7_2" d="M129.332 81.1945L119.218 92.0622" stroke="#BB99FF" stroke-linecap="round" stroke-linejoin="round"/>
<path id="Vector 8_2" d="M130.321 83.2716L120.072 94.5225" stroke="#BB99FF" stroke-linecap="round" stroke-linejoin="round"/>
<path id="Vector 9_2" d="M131.31 85.3486L121.061 96.5996" stroke="#BB99FF" stroke-linecap="round" stroke-linejoin="round"/>
<path id="Vector 10_2" d="M131.903 87.9326L122.05 98.6766" stroke="#BB99FF" stroke-linecap="round" stroke-linejoin="round"/>
<path id="Vector 11_2" d="M132.893 90.0097L123.039 100.754" stroke="#BB99FF" stroke-linecap="round" stroke-linejoin="round"/>
<path id="Vector 12_2" d="M133.622 92.2104L124.028 102.831" stroke="#BB99FF" stroke-linecap="round" stroke-linejoin="round"/>
<path id="Vector 13_2" d="M134.871 94.1638L125.017 104.908" stroke="#BB99FF" stroke-linecap="round" stroke-linejoin="round"/>
<path id="Vector 14_2" d="M135.86 96.2409L126.006 106.985" stroke="#BB99FF" stroke-linecap="round" stroke-linejoin="round"/>
<path id="Vector 15_2" d="M136.453 98.8249L126.995 109.062" stroke="#BB99FF" stroke-linecap="round" stroke-linejoin="round"/>
<path id="Vector 16_2" d="M137.702 100.778L127.984 111.139" stroke="#BB99FF" stroke-linecap="round" stroke-linejoin="round"/>
<path id="Vector 17_2" d="M138.432 102.979L128.578 113.723" stroke="#BB99FF" stroke-linecap="round" stroke-linejoin="round"/>
<path id="Vector 18_2" d="M139.421 105.056L129.567 115.8" stroke="#BB99FF" stroke-linecap="round" stroke-linejoin="round"/>
<path id="Vector 19_2" d="M140.15 107.257L130.556 117.877" stroke="#BB99FF" stroke-linecap="round" stroke-linejoin="round"/>
<path id="Vector 20_2" d="M141.139 109.334L131.286 120.078" stroke="#BB99FF" stroke-linecap="round" stroke-linejoin="round"/>
<path id="Vector 21_2" d="M142.128 111.411L133.462 120.634" stroke="#BB99FF" stroke-linecap="round" stroke-linejoin="round"/>
<path id="Vector 22_2" d="M142.858 113.612L135.761 121.45" stroke="#BB99FF" stroke-linecap="round" stroke-linejoin="round"/>
<path id="Vector 23_2" d="M143.971 115.948L137.801 122.39" stroke="#BB99FF" stroke-linecap="round" stroke-linejoin="round"/>
<path id="Vector 24_2" d="M144.7 118.149L140.101 123.206" stroke="#BB99FF" stroke-linecap="round" stroke-linejoin="round"/>
<path id="Vector 25_2" d="M145.689 120.226L142.141 124.145" stroke="#BB99FF" stroke-linecap="round" stroke-linejoin="round"/>
<path id="Vector 26_2" d="M146.678 122.303L144.317 124.702" stroke="#BB99FF" stroke-linecap="round" stroke-linejoin="round"/>
<path id="Vector 27_2" d="M147.408 124.504L146.357 125.641" stroke="#BB99FF" stroke-linecap="round" stroke-linejoin="round"/>
</g>
</g>
</svg>
